<svg width="141" height="35" viewBox="0 0 141 35" fill="none" xmlns="http://www.w3.org/2000/svg">
<path fill-rule="evenodd" clip-rule="evenodd" d="M85.2807 8.04578C84.9717 8.06817 84.6326 8.11397 84.5273 8.14749C84.4219 8.18107 84.2227 8.22595 84.0846 8.24737C83.8614 8.28192 83.1876 8.48824 82.8848 8.61485C82.3128 8.8539 81.4234 9.33628 81.1989 9.52912C81.1619 9.56099 81.1116 9.58777 81.0873 9.58863C80.9875 9.59223 80.1866 10.2737 79.7085 10.762C79.0731 11.4108 78.3975 12.3586 77.9814 13.1849C77.538 14.0654 77.1579 15.3257 77.0528 16.2641C76.9827 16.8901 76.9823 18.1567 77.052 18.7768C77.1677 19.8065 77.502 20.9263 77.9827 21.8935C78.2785 22.4886 78.3691 22.6343 78.8707 23.3211C79.7492 24.5241 80.871 25.4612 82.2196 26.1184C83.2065 26.5994 83.6653 26.7446 84.8589 26.9534C85.3941 27.0471 87.4721 26.9898 87.9632 26.8679C89.2569 26.5467 90.5785 25.9633 91.3199 25.3859C91.4473 25.2868 91.6083 25.1671 91.6777 25.12C92.1191 24.8204 92.8051 24.126 93.4323 23.3439C93.7924 22.8948 94.3857 21.8118 94.6491 21.1225C95.146 19.8224 95.3223 18.7676 95.2841 17.324C95.2504 16.0509 95.1163 15.2518 94.7716 14.2698C94.547 13.6299 94.2849 13.0991 94.1936 13.0991C94.1343 13.0991 93.7744 13.4011 93.3002 13.8488L93.0504 14.0846L93.1383 14.2771C93.3098 14.6524 93.5741 15.5428 93.6591 16.0308C93.9051 17.4443 93.7565 19.2918 93.3155 20.3031C93.2723 20.4021 93.237 20.5001 93.237 20.5208C93.237 20.5952 92.9335 21.216 92.6917 21.6365C91.5771 23.5742 89.7302 24.9013 87.5336 25.3427C86.2194 25.6067 84.4951 25.4301 83.3033 24.9095C82.5533 24.5818 81.6222 24.0059 81.1826 23.5977C80.6527 23.1056 80.2364 22.6214 79.79 21.9782C79.582 21.6786 79.0235 20.5346 78.9784 20.3161C78.9565 20.21 78.906 20.0461 78.8662 19.9519C78.8264 19.8576 78.7357 19.5364 78.6646 19.238C78.55 18.7571 78.5358 18.5625 78.539 17.5248C78.5424 16.4657 78.5565 16.297 78.6872 15.7545C78.8249 15.1825 78.9486 14.7757 79.0605 14.5267C79.0887 14.4639 79.1908 14.2352 79.2873 14.0184C79.758 12.9608 80.6852 11.8241 81.7111 11.0468C82.2294 10.6541 83.2555 10.1052 83.694 9.98626C83.8321 9.94874 83.9702 9.90209 84.0009 9.88244C84.0316 9.86285 84.333 9.78896 84.6706 9.71826C85.5203 9.54032 86.7805 9.53541 87.5751 9.70701C88.0761 9.81523 88.8059 10.0367 89.0439 10.1527C89.0941 10.1772 89.2607 10.2572 89.4142 10.3305C89.8811 10.5537 90.6136 11.0254 90.8947 11.284C91.041 11.4185 91.1861 11.5287 91.2172 11.5287C91.2483 11.5287 91.5078 11.3488 91.7939 11.1289C92.08 10.909 92.3334 10.7292 92.357 10.7292C92.5335 10.7292 92.2301 10.3649 91.7387 9.98678C91.6366 9.90825 91.5232 9.81831 91.4867 9.7869C90.9921 9.3618 89.8247 8.75545 88.9735 8.48145C88.1069 8.20248 87.651 8.10517 86.9213 8.04344C86.2317 7.98508 86.1149 7.98519 85.2807 8.04578ZM96.6309 9.38185C96.4564 9.44758 96.2953 9.52067 96.2728 9.5442C96.2504 9.56773 96.1977 9.58703 96.1559 9.58703C96.0622 9.58703 94.9401 10.1546 94.2973 10.5271C93.6198 10.9198 92.9943 11.3333 92.2325 11.8922C92.033 12.0386 91.7818 12.2191 91.6744 12.2933C91.567 12.3674 91.4087 12.4956 91.3227 12.578C91.2368 12.6604 91.1524 12.7279 91.1352 12.7279C91.1182 12.7279 91.0504 12.7775 90.9847 12.838C90.9189 12.8987 90.7271 13.069 90.5583 13.2167C89.5615 14.0882 87.6877 15.9577 86.9029 16.8637C86.688 17.1117 86.4166 17.4197 86.2996 17.5482C86.1827 17.6767 86.0069 17.8903 85.909 18.0227C85.8111 18.1553 85.7158 18.2645 85.6973 18.2654C85.6789 18.2664 85.3649 17.965 84.9997 17.5956C84.1979 16.7845 83.9815 16.5899 83.3312 16.0956C82.7139 15.6262 82.4193 15.469 82.1575 15.469C81.9034 15.469 81.5277 15.6925 81.3683 15.9385C81.1545 16.2685 81.1731 16.4045 81.4763 16.7283C82.0097 17.2979 82.5673 17.9172 82.8569 18.2614C83.0257 18.4621 83.214 18.685 83.2754 18.7567C83.3368 18.8285 83.4498 18.9685 83.5265 19.068C83.6033 19.1675 83.7471 19.3428 83.8461 19.4576C83.9452 19.5724 84.0268 19.6846 84.0275 19.7069C84.0282 19.7293 84.0746 19.7935 84.1305 19.8497C84.1863 19.9059 84.462 20.2749 84.7429 20.6697C85.398 21.5905 85.4175 21.6079 85.7927 21.6079C86.077 21.6079 86.1072 21.5936 86.333 21.351C86.5451 21.1231 86.6435 20.9941 86.8471 20.6769C86.8778 20.6291 86.9362 20.5493 86.977 20.4994C87.0757 20.3788 87.495 19.7994 87.6005 19.6382C87.6465 19.5678 87.7972 19.362 87.9353 19.1809C88.0734 18.9998 88.2241 18.7948 88.2702 18.7252C88.3162 18.6555 88.5601 18.3248 88.8122 17.9903C89.0642 17.6558 89.3967 17.2137 89.5512 17.0078C89.7056 16.802 89.876 16.5835 89.93 16.5224C89.9839 16.4612 90.0968 16.317 90.1807 16.202C90.2646 16.0869 90.3651 15.9583 90.4039 15.9161C90.4428 15.8739 90.5988 15.6854 90.7507 15.4972C90.9025 15.3089 91.1285 15.0386 91.2529 14.8964C91.3773 14.7543 91.6172 14.4737 91.786 14.273C92.1728 13.8131 93.7748 12.1713 94.4691 11.5232C95.3226 10.7264 95.8588 10.264 96.8889 9.43621C97.1035 9.26364 97.0017 9.24216 96.6309 9.38185Z" fill="#2FA1C0"/>
<path d="M3.624 11.744V9.2H11.136V11.744H3.624ZM3.624 18.416V15.944H10.896V18.416H3.624ZM1.872 9.2H4.656V26H1.872V9.2ZM18.1909 14.96V26H15.6229V14.96H18.1909ZM21.4789 17.72C21.2389 17.528 21.0149 17.384 20.8069 17.288C20.5989 17.192 20.3349 17.144 20.0149 17.144C19.5829 17.144 19.2309 17.256 18.9589 17.48C18.6869 17.704 18.4869 18.016 18.3589 18.416C18.2469 18.8 18.1909 19.256 18.1909 19.784L17.3269 19.28C17.3269 18.4 17.4869 17.624 17.8069 16.952C18.1429 16.264 18.5669 15.72 19.0789 15.32C19.6069 14.92 20.1509 14.72 20.7109 14.72C21.1109 14.72 21.4869 14.784 21.8389 14.912C22.1909 15.024 22.4869 15.232 22.7269 15.536L21.4789 17.72ZM30.8741 26.24C29.7541 26.24 28.7621 26 27.8981 25.52C27.0501 25.04 26.3941 24.368 25.9301 23.504C25.4661 22.64 25.2341 21.632 25.2341 20.48C25.2341 19.312 25.4661 18.296 25.9301 17.432C26.4101 16.568 27.0821 15.904 27.9461 15.44C28.8101 14.96 29.8261 14.72 30.9941 14.72C32.1621 14.72 33.1541 14.944 33.9701 15.392C34.7861 15.84 35.4101 16.488 35.8421 17.336C36.2901 18.168 36.5141 19.176 36.5141 20.36C36.5141 20.488 36.5061 20.624 36.4901 20.768C36.4901 20.912 36.4821 21.016 36.4661 21.08H26.7701V19.304H34.2581L33.4661 20.408C33.5141 20.312 33.5621 20.184 33.6101 20.024C33.6741 19.848 33.7061 19.704 33.7061 19.592C33.7061 19 33.5861 18.488 33.3461 18.056C33.1221 17.624 32.8021 17.288 32.3861 17.048C31.9861 16.808 31.5141 16.688 30.9701 16.688C30.3141 16.688 29.7541 16.832 29.2901 17.12C28.8261 17.408 28.4741 17.824 28.2341 18.368C27.9941 18.912 27.8661 19.584 27.8501 20.384C27.8501 21.184 27.9701 21.864 28.2101 22.424C28.4501 22.968 28.8021 23.384 29.2661 23.672C29.7461 23.96 30.3221 24.104 30.9941 24.104C31.6981 24.104 32.3141 23.96 32.8421 23.672C33.3701 23.384 33.8101 22.944 34.1621 22.352L36.3941 23.264C35.8181 24.256 35.0741 25 34.1621 25.496C33.2501 25.992 32.1541 26.24 30.8741 26.24ZM45.7082 26.24C44.5882 26.24 43.5962 26 42.7322 25.52C41.8842 25.04 41.2282 24.368 40.7642 23.504C40.3002 22.64 40.0682 21.632 40.0682 20.48C40.0682 19.312 40.3002 18.296 40.7642 17.432C41.2442 16.568 41.9162 15.904 42.7802 15.44C43.6442 14.96 44.6602 14.72 45.8282 14.72C46.9962 14.72 47.9882 14.944 48.8042 15.392C49.6202 15.84 50.2442 16.488 50.6762 17.336C51.1242 18.168 51.3482 19.176 51.3482 20.36C51.3482 20.488 51.3402 20.624 51.3242 20.768C51.3242 20.912 51.3162 21.016 51.3002 21.08H41.6042V19.304H49.0922L48.3002 20.408C48.3482 20.312 48.3962 20.184 48.4442 20.024C48.5082 19.848 48.5402 19.704 48.5402 19.592C48.5402 19 48.4202 18.488 48.1802 18.056C47.9562 17.624 47.6362 17.288 47.2202 17.048C46.8202 16.808 46.3482 16.688 45.8042 16.688C45.1482 16.688 44.5882 16.832 44.1242 17.12C43.6602 17.408 43.3082 17.824 43.0682 18.368C42.8282 18.912 42.7002 19.584 42.6842 20.384C42.6842 21.184 42.8042 21.864 43.0442 22.424C43.2842 22.968 43.6362 23.384 44.1002 23.672C44.5802 23.96 45.1562 24.104 45.8282 24.104C46.5322 24.104 47.1482 23.96 47.6762 23.672C48.2042 23.384 48.6442 22.944 48.9962 22.352L51.2282 23.264C50.6522 24.256 49.9082 25 48.9962 25.496C48.0842 25.992 46.9882 26.24 45.7082 26.24ZM63.3936 11.816V9.2H75.1056V11.816H70.6656V26H67.8096V11.816H63.3936ZM97.0012 21.464V19.136H101.921V21.464H97.0012ZM103.909 9.2H106.789V26H103.909V9.2ZM109.333 26H105.661V23.336H109.261C110.093 23.336 110.861 23.216 111.565 22.976C112.269 22.736 112.877 22.376 113.389 21.896C113.917 21.416 114.325 20.816 114.613 20.096C114.917 19.376 115.069 18.544 115.069 17.6C115.069 16.656 114.917 15.824 114.613 15.104C114.325 14.384 113.917 13.784 113.389 13.304C112.877 12.824 112.269 12.464 111.565 12.224C110.861 11.984 110.093 11.864 109.261 11.864H105.661V9.2H109.333C111.045 9.2 112.549 9.552 113.845 10.256C115.141 10.944 116.149 11.92 116.869 13.184C117.605 14.432 117.973 15.904 117.973 17.6C117.973 19.296 117.605 20.776 116.869 22.04C116.149 23.288 115.141 24.264 113.845 24.968C112.549 25.656 111.045 26 109.333 26ZM124.698 17.6C124.698 18.752 124.938 19.784 125.418 20.696C125.914 21.592 126.594 22.296 127.458 22.808C128.322 23.32 129.306 23.576 130.41 23.576C131.53 23.576 132.514 23.32 133.362 22.808C134.226 22.296 134.898 21.592 135.378 20.696C135.874 19.784 136.122 18.752 136.122 17.6C136.122 16.448 135.882 15.424 135.402 14.528C134.922 13.616 134.25 12.904 133.386 12.392C132.538 11.88 131.546 11.624 130.41 11.624C129.306 11.624 128.322 11.88 127.458 12.392C126.594 12.904 125.914 13.616 125.418 14.528C124.938 15.424 124.698 16.448 124.698 17.6ZM121.698 17.6C121.698 16.336 121.914 15.176 122.346 14.12C122.778 13.064 123.386 12.152 124.17 11.384C124.97 10.6 125.898 9.992 126.954 9.56C128.026 9.128 129.178 8.912 130.41 8.912C131.674 8.912 132.834 9.128 133.89 9.56C134.946 9.992 135.866 10.6 136.65 11.384C137.45 12.152 138.066 13.064 138.498 14.12C138.93 15.176 139.146 16.336 139.146 17.6C139.146 18.848 138.93 20.008 138.498 21.08C138.066 22.152 137.458 23.08 136.674 23.864C135.89 24.648 134.962 25.264 133.89 25.712C132.834 26.144 131.674 26.36 130.41 26.36C129.162 26.36 128.002 26.144 126.93 25.712C125.858 25.264 124.93 24.648 124.146 23.864C123.378 23.08 122.778 22.152 122.346 21.08C121.914 20.008 121.698 18.848 121.698 17.6Z" fill="#2FA1C0"/>
</svg>
